<svg width="42" height="42" viewBox="0 0 42 42" fill="none" xmlns="http://www.w3.org/2000/svg">
<path fill-rule="evenodd" clip-rule="evenodd" d="M1.50631 28.0197L9.57566 17.2617L11.7832 18.4271L17.036 10L20.3093 13.8551L21.5274 12.8689L26.2471 18.7858L29.5967 14.8411L38.96 28.0197L29.9392 16.8136L28.5689 21.5202L29.825 25.2407L21.7557 14.2585L21.6683 18.0056L26.2471 28.0197L17.6829 12.5102L20.1571 20.8926L16.6935 12.7343L14.7903 18.1583L15.1707 14.6169L10.4129 27.3922L10.9837 22.0132L9.00454 19.8617L1.50631 28.0197Z" fill="#011C40"/>
<path fill-rule="evenodd" clip-rule="evenodd" d="M41.6727 29.7024C28.8967 19.511 9.01096 33.522 0.976807 28.1188C9.80989 35.7756 30.4561 22.832 41.6727 29.7024Z" fill="#011C40"/>
<path fill-rule="evenodd" clip-rule="evenodd" d="M42.0001 30.5038C31.9761 24.1941 17.0678 32.9749 9.42696 30.9415C17.7065 34.9111 33.1204 26.1156 42.0001 30.5038Z" fill="#011C40"/>
</svg>
